# MagicaVoxel @ Ephtracy

# material
mtllib RbtHead.mtl
usemtl palette

# normals
vn -1 0 0
vn 1 0 0
vn 0 0 1
vn 0 0 -1
vn 0 -1 0
vn 0 1 0

# texcoords
vt 0.763672 0.5
vt 0.958984 0.5
vt 0.974609 0.5
vt 0.982422 0.5
vt 0.986328 0.5
vt 0.994141 0.5

# verts
v -14 102 -9
v -14 102 -19
v -14 103 -8
v -14 103 -9
v -14 114 -8
v -14 114 -9
v -14 114 -18
v -14 114 -19
v -14 115 -9
v -14 115 -18
v -13 102 -8
v -13 102 -9
v -13 102 -19
v -13 102 -20
v -13 103 -7
v -13 103 -8
v -13 103 -9
v -13 114 -7
v -13 114 -8
v -13 114 -9
v -13 114 -18
v -13 114 -19
v -13 114 -20
v -13 115 -8
v -13 115 -9
v -13 115 -18
v -13 115 -19
v -13 116 -9
v -13 116 -18
v -12 101 -8
v -12 101 -9
v -12 102 -7
v -12 102 -8
v -12 102 -9
v -12 103 -7
v -12 103 -8
v -12 114 -7
v -12 114 -8
v -12 114 -19
v -12 114 -20
v -12 115 -7
v -12 115 -8
v -12 115 -9
v -12 115 -18
v -12 115 -19
v -12 115 -20
v -12 116 -8
v -12 116 -9
v -12 116 -18
v -12 116 -19
v -11 101 -7
v -11 101 -8
v -11 102 -7
v -11 102 -8
v -8 101 -9
v -8 101 -10
v -8 102 -9
v -8 102 -10
v -4 101 -5
v -4 101 -7
v -4 102 -7
v -4 108 -7
v -4 108 -8
v -4 109 -5
v -4 109 -8
v 3 101 -5
v 3 101 -7
v 3 102 -7
v 3 108 -5
v 3 108 -7
v 7 108 -7
v 7 108 -8
v 7 109 -7
v 7 109 -8
v 8 109 -7
v 8 109 -8
v 8 110 -7
v 8 110 -8
v 9 110 -7
v 9 110 -8
v 9 113 -7
v 9 113 -8
v -9 110 -7
v -9 110 -8
v -9 113 -7
v -9 113 -8
v -8 109 -7
v -8 109 -8
v -8 110 -7
v -8 110 -8
v -7 108 -7
v -7 108 -8
v -7 109 -7
v -7 109 -8
v -3 101 -5
v -3 101 -7
v -3 102 -7
v -3 108 -5
v -3 108 -7
v 4 101 -5
v 4 101 -7
v 4 102 -7
v 4 108 -7
v 4 108 -8
v 4 109 -5
v 4 109 -8
v 8 101 -9
v 8 101 -10
v 8 102 -9
v 8 102 -10
v 11 101 -7
v 11 101 -8
v 11 102 -7
v 11 102 -8
v 12 101 -8
v 12 101 -9
v 12 102 -7
v 12 102 -8
v 12 102 -9
v 12 103 -7
v 12 103 -8
v 12 114 -7
v 12 114 -8
v 12 114 -19
v 12 114 -20
v 12 115 -7
v 12 115 -8
v 12 115 -9
v 12 115 -18
v 12 115 -19
v 12 115 -20
v 12 116 -8
v 12 116 -9
v 12 116 -18
v 12 116 -19
v 13 102 -8
v 13 102 -9
v 13 102 -19
v 13 102 -20
v 13 103 -7
v 13 103 -8
v 13 103 -9
v 13 114 -7
v 13 114 -8
v 13 114 -9
v 13 114 -18
v 13 114 -19
v 13 114 -20
v 13 115 -8
v 13 115 -9
v 13 115 -18
v 13 115 -19
v 13 116 -9
v 13 116 -18
v 14 102 -9
v 14 102 -19
v 14 103 -8
v 14 103 -9
v 14 114 -8
v 14 114 -9
v 14 114 -18
v 14 114 -19
v 14 115 -9
v 14 115 -18
v -4 101 -5
v -4 109 -5
v -3 101 -5
v -3 108 -5
v 3 101 -5
v 3 108 -5
v 4 101 -5
v 4 109 -5
v -13 103 -7
v -13 114 -7
v -12 102 -7
v -12 103 -7
v -12 114 -7
v -12 115 -7
v -11 101 -7
v -11 102 -7
v -11 103 -7
v -9 110 -7
v -9 113 -7
v -8 109 -7
v -8 110 -7
v -7 108 -7
v -7 109 -7
v -4 101 -7
v -4 102 -7
v -4 108 -7
v -3 101 -7
v -3 102 -7
v -3 108 -7
v -2 102 -7
v -2 108 -7
v -1 102 -7
v -1 108 -7
v 0 102 -7
v 0 108 -7
v 1 102 -7
v 1 108 -7
v 2 102 -7
v 2 108 -7
v 3 101 -7
v 3 102 -7
v 3 108 -7
v 4 101 -7
v 4 102 -7
v 4 108 -7
v 7 108 -7
v 7 109 -7
v 8 109 -7
v 8 110 -7
v 9 110 -7
v 9 113 -7
v 11 101 -7
v 11 102 -7
v 11 103 -7
v 12 102 -7
v 12 103 -7
v 12 114 -7
v 12 115 -7
v 13 103 -7
v 13 114 -7
v -14 103 -8
v -14 114 -8
v -13 102 -8
v -13 103 -8
v -13 114 -8
v -13 115 -8
v -12 101 -8
v -12 102 -8
v -12 103 -8
v -12 114 -8
v -12 115 -8
v -12 116 -8
v -11 101 -8
v -11 102 -8
v -9 110 -8
v -9 113 -8
v -8 109 -8
v -8 110 -8
v -7 108 -8
v -7 109 -8
v -6 110 -8
v -6 111 -8
v -4 108 -8
v -4 109 -8
v -3 110 -8
v -3 111 -8
v 3 110 -8
v 3 111 -8
v 4 108 -8
v 4 109 -8
v 6 110 -8
v 6 111 -8
v 7 108 -8
v 7 109 -8
v 8 109 -8
v 8 110 -8
v 9 110 -8
v 9 113 -8
v 11 101 -8
v 11 102 -8
v 12 101 -8
v 12 102 -8
v 12 103 -8
v 12 114 -8
v 12 115 -8
v 12 116 -8
v 13 102 -8
v 13 103 -8
v 13 114 -8
v 13 115 -8
v 14 103 -8
v 14 114 -8
v -14 102 -9
v -14 103 -9
v -14 114 -9
v -14 115 -9
v -13 102 -9
v -13 103 -9
v -13 114 -9
v -13 115 -9
v -13 116 -9
v -12 115 -9
v -12 116 -9
v 12 115 -9
v 12 116 -9
v 13 102 -9
v 13 103 -9
v 13 114 -9
v 13 115 -9
v 13 116 -9
v 14 102 -9
v 14 103 -9
v 14 114 -9
v 14 115 -9
v -12 101 -9
v -12 102 -9
v -10 102 -9
v -8 101 -9
v -8 102 -9
v 8 101 -9
v 8 102 -9
v 10 102 -9
v 12 101 -9
v 12 102 -9
v -8 101 -10
v -8 102 -10
v 8 101 -10
v 8 102 -10
v -14 114 -18
v -14 115 -18
v -13 114 -18
v -13 115 -18
v -13 116 -18
v -12 115 -18
v -12 116 -18
v 12 115 -18
v 12 116 -18
v 13 114 -18
v 13 115 -18
v 13 116 -18
v 14 114 -18
v 14 115 -18
v -14 102 -19
v -14 114 -19
v -13 102 -19
v -13 114 -19
v -13 115 -19
v -12 114 -19
v -12 115 -19
v -12 116 -19
v 12 114 -19
v 12 115 -19
v 12 116 -19
v 13 102 -19
v 13 114 -19
v 13 115 -19
v 14 102 -19
v 14 114 -19
v -13 102 -20
v -13 114 -20
v -12 114 -20
v -12 115 -20
v -10 102 -20
v -10 114 -20
v 10 102 -20
v 10 114 -20
v 12 114 -20
v 12 115 -20
v 13 102 -20
v 13 114 -20
v -4 101 -5
v -3 101 -5
v 3 101 -5
v 4 101 -5
v -11 101 -7
v -4 101 -7
v -3 101 -7
v 3 101 -7
v 4 101 -7
v 11 101 -7
v -12 101 -8
v -11 101 -8
v 11 101 -8
v 12 101 -8
v -12 101 -9
v -8 101 -9
v 8 101 -9
v 12 101 -9
v -8 101 -10
v 8 101 -10
v -12 102 -7
v -11 102 -7
v 11 102 -7
v 12 102 -7
v -13 102 -8
v -12 102 -8
v -11 102 -8
v 11 102 -8
v 12 102 -8
v 13 102 -8
v -14 102 -9
v -13 102 -9
v -12 102 -9
v -10 102 -9
v -8 102 -9
v 8 102 -9
v 10 102 -9
v 12 102 -9
v 13 102 -9
v 14 102 -9
v -8 102 -10
v 8 102 -10
v -14 102 -19
v -13 102 -19
v 13 102 -19
v 14 102 -19
v -13 102 -20
v -10 102 -20
v 10 102 -20
v 13 102 -20
v -13 103 -7
v -12 103 -7
v 12 103 -7
v 13 103 -7
v -14 103 -8
v -13 103 -8
v -12 103 -8
v 12 103 -8
v 13 103 -8
v 14 103 -8
v -14 103 -9
v -13 103 -9
v 13 103 -9
v 14 103 -9
v -3 108 -5
v 3 108 -5
v -3 108 -7
v -2 108 -7
v -1 108 -7
v 0 108 -7
v 1 108 -7
v 2 108 -7
v 3 108 -7
v -9 113 -7
v 9 113 -7
v -9 113 -8
v 9 113 -8
v -7 108 -7
v -4 108 -7
v 4 108 -7
v 7 108 -7
v -7 108 -8
v -4 108 -8
v 4 108 -8
v 7 108 -8
v -4 109 -5
v 4 109 -5
v -8 109 -7
v -7 109 -7
v 7 109 -7
v 8 109 -7
v -8 109 -8
v -7 109 -8
v -4 109 -8
v 4 109 -8
v 7 109 -8
v 8 109 -8
v -9 110 -7
v -8 110 -7
v 8 110 -7
v 9 110 -7
v -9 110 -8
v -8 110 -8
v 8 110 -8
v 9 110 -8
v -13 114 -7
v -12 114 -7
v 12 114 -7
v 13 114 -7
v -14 114 -8
v -13 114 -8
v -12 114 -8
v 12 114 -8
v 13 114 -8
v 14 114 -8
v -14 114 -9
v -13 114 -9
v 13 114 -9
v 14 114 -9
v -14 114 -18
v -13 114 -18
v 13 114 -18
v 14 114 -18
v -14 114 -19
v -13 114 -19
v -12 114 -19
v 12 114 -19
v 13 114 -19
v 14 114 -19
v -13 114 -20
v -12 114 -20
v 12 114 -20
v 13 114 -20
v -12 115 -7
v 12 115 -7
v -13 115 -8
v -12 115 -8
v 12 115 -8
v 13 115 -8
v -14 115 -9
v -13 115 -9
v -12 115 -9
v 12 115 -9
v 13 115 -9
v 14 115 -9
v -14 115 -18
v -13 115 -18
v -12 115 -18
v 12 115 -18
v 13 115 -18
v 14 115 -18
v -13 115 -19
v -12 115 -19
v 12 115 -19
v 13 115 -19
v -12 115 -20
v 12 115 -20
v -12 116 -8
v 12 116 -8
v -13 116 -9
v -12 116 -9
v 12 116 -9
v 13 116 -9
v -12 116 -17
v -11 116 -17
v 11 116 -17
v 12 116 -17
v -13 116 -18
v -12 116 -18
v -11 116 -18
v 11 116 -18
v 12 116 -18
v 13 116 -18
v -12 116 -19
v 12 116 -19

# faces
f 4/1/1 2/1/1 1/1/1
f 5/1/1 4/1/1 3/1/1
f 6/1/1 2/1/1 4/1/1
f 6/1/1 4/1/1 5/1/1
f 7/1/1 2/1/1 6/1/1
f 8/1/1 2/1/1 7/1/1
f 9/1/1 7/1/1 6/1/1
f 10/1/1 7/1/1 9/1/1
f 16/1/1 12/1/1 11/1/1
f 17/1/1 12/1/1 16/1/1
f 18/1/1 16/1/1 15/1/1
f 19/1/1 16/1/1 18/1/1
f 22/1/1 14/1/1 13/1/1
f 23/1/1 14/1/1 22/1/1
f 24/1/1 20/1/1 19/1/1
f 25/1/1 20/1/1 24/1/1
f 26/1/1 22/1/1 21/1/1
f 27/1/1 22/1/1 26/1/1
f 28/1/1 26/1/1 25/1/1
f 29/1/1 26/1/1 28/1/1
f 33/1/1 31/1/1 30/1/1
f 34/1/1 31/1/1 33/1/1
f 35/1/1 33/1/1 32/1/1
f 36/1/1 33/1/1 35/1/1
f 41/3/1 38/3/1 37/3/1
f 42/3/1 38/3/1 41/3/1
f 45/1/1 40/1/1 39/1/1
f 46/1/1 40/1/1 45/1/1
f 47/3/1 43/3/1 42/3/1
f 48/3/1 43/3/1 47/3/1
f 49/1/1 45/1/1 44/1/1
f 50/1/1 45/1/1 49/1/1
f 53/1/1 52/1/1 51/1/1
f 54/1/1 52/1/1 53/1/1
f 57/1/1 56/1/1 55/1/1
f 58/1/1 56/1/1 57/1/1
f 61/1/1 60/1/1 59/1/1
f 62/1/1 61/1/1 59/1/1
f 64/1/1 62/1/1 59/1/1
f 64/1/1 63/1/1 62/1/1
f 65/1/1 63/1/1 64/1/1
f 68/1/1 67/1/1 66/1/1
f 69/1/1 68/1/1 66/1/1
f 70/1/1 68/1/1 69/1/1
f 73/3/1 72/3/1 71/3/1
f 74/3/1 72/3/1 73/3/1
f 77/3/1 76/3/1 75/3/1
f 78/3/1 76/3/1 77/3/1
f 81/3/1 80/3/1 79/3/1
f 82/3/1 80/3/1 81/3/1
f 83/3/2 84/3/2 85/3/2
f 85/3/2 84/3/2 86/3/2
f 87/3/2 88/3/2 89/3/2
f 89/3/2 88/3/2 90/3/2
f 91/3/2 92/3/2 93/3/2
f 93/3/2 92/3/2 94/3/2
f 95/1/2 96/1/2 97/1/2
f 95/1/2 97/1/2 98/1/2
f 98/1/2 97/1/2 99/1/2
f 100/1/2 101/1/2 102/1/2
f 100/1/2 102/1/2 103/1/2
f 100/1/2 103/1/2 105/1/2
f 103/1/2 104/1/2 105/1/2
f 105/1/2 104/1/2 106/1/2
f 107/1/2 108/1/2 109/1/2
f 109/1/2 108/1/2 110/1/2
f 111/1/2 112/1/2 113/1/2
f 113/1/2 112/1/2 114/1/2
f 115/1/2 116/1/2 118/1/2
f 118/1/2 116/1/2 119/1/2
f 117/1/2 118/1/2 120/1/2
f 120/1/2 118/1/2 121/1/2
f 122/3/2 123/3/2 126/3/2
f 126/3/2 123/3/2 127/3/2
f 124/1/2 125/1/2 130/1/2
f 130/1/2 125/1/2 131/1/2
f 127/3/2 128/3/2 132/3/2
f 132/3/2 128/3/2 133/3/2
f 129/1/2 130/1/2 134/1/2
f 134/1/2 130/1/2 135/1/2
f 136/1/2 137/1/2 141/1/2
f 141/1/2 137/1/2 142/1/2
f 140/1/2 141/1/2 143/1/2
f 143/1/2 141/1/2 144/1/2
f 138/1/2 139/1/2 147/1/2
f 147/1/2 139/1/2 148/1/2
f 144/1/2 145/1/2 149/1/2
f 149/1/2 145/1/2 150/1/2
f 146/1/2 147/1/2 151/1/2
f 151/1/2 147/1/2 152/1/2
f 150/1/2 151/1/2 153/1/2
f 153/1/2 151/1/2 154/1/2
f 155/1/2 156/1/2 158/1/2
f 157/1/2 158/1/2 159/1/2
f 158/1/2 156/1/2 160/1/2
f 159/1/2 158/1/2 160/1/2
f 160/1/2 156/1/2 161/1/2
f 161/1/2 156/1/2 162/1/2
f 160/1/2 161/1/2 163/1/2
f 163/1/2 161/1/2 164/1/2
f 167/1/3 166/1/3 165/1/3
f 168/1/3 166/1/3 167/1/3
f 170/1/3 166/1/3 168/1/3
f 171/1/3 170/1/3 169/1/3
f 172/1/3 166/1/3 170/1/3
f 172/1/3 170/1/3 171/1/3
f 176/1/3 174/1/3 173/1/3
f 177/1/3 174/1/3 176/1/3
f 180/1/3 176/1/3 175/1/3
f 181/3/3 178/3/3 177/3/3
f 181/3/3 177/3/3 176/3/3
f 181/1/3 176/1/3 180/1/3
f 182/3/3 181/3/3 180/3/3
f 182/3/3 178/3/3 181/3/3
f 183/3/3 178/3/3 182/3/3
f 184/3/3 182/3/3 180/3/3
f 185/3/3 182/3/3 184/3/3
f 186/3/3 184/3/3 180/3/3
f 187/3/3 184/3/3 186/3/3
f 188/1/3 180/1/3 179/1/3
f 189/3/3 186/3/3 180/3/3
f 189/1/3 180/1/3 188/1/3
f 190/3/3 186/3/3 189/3/3
f 194/1/3 192/1/3 191/1/3
f 194/4/3 193/4/3 192/4/3
f 195/4/3 193/4/3 194/4/3
f 196/1/3 194/1/3 191/1/3
f 196/5/3 195/5/3 194/5/3
f 197/5/3 195/5/3 196/5/3
f 198/1/3 196/1/3 191/1/3
f 198/4/3 197/4/3 196/4/3
f 199/4/3 197/4/3 198/4/3
f 200/1/3 198/1/3 191/1/3
f 200/5/3 199/5/3 198/5/3
f 201/5/3 199/5/3 200/5/3
f 202/1/3 200/1/3 191/1/3
f 202/4/3 201/4/3 200/4/3
f 203/4/3 201/4/3 202/4/3
f 204/1/3 202/1/3 191/1/3
f 205/5/3 203/5/3 202/5/3
f 205/1/3 202/1/3 204/1/3
f 206/5/3 203/5/3 205/5/3
f 210/3/3 209/3/3 208/3/3
f 212/3/3 211/3/3 210/3/3
f 214/3/3 213/3/3 212/3/3
f 215/3/3 178/3/3 183/3/3
f 216/1/3 208/1/3 207/1/3
f 217/3/3 212/3/3 210/3/3
f 217/1/3 208/1/3 216/1/3
f 217/3/3 214/3/3 212/3/3
f 217/3/3 210/3/3 208/3/3
f 217/3/3 215/3/3 214/3/3
f 218/3/3 215/3/3 217/3/3
f 219/1/3 218/1/3 217/1/3
f 220/3/3 215/3/3 218/3/3
f 220/1/3 218/1/3 219/1/3
f 221/3/3 178/3/3 215/3/3
f 221/3/3 215/3/3 220/3/3
f 222/3/3 178/3/3 221/3/3
f 223/1/3 221/1/3 220/1/3
f 224/1/3 221/1/3 223/1/3
f 228/1/3 226/1/3 225/1/3
f 229/1/3 226/1/3 228/1/3
f 232/1/3 228/1/3 227/1/3
f 233/1/3 228/1/3 232/1/3
f 234/1/3 230/1/3 229/1/3
f 235/1/3 230/1/3 234/1/3
f 237/1/3 232/1/3 231/1/3
f 238/1/3 232/1/3 237/1/3
f 242/6/3 240/6/3 239/6/3
f 244/6/3 242/6/3 241/6/3
f 245/6/3 240/6/3 242/6/3
f 245/6/3 244/6/3 243/6/3
f 245/6/3 242/6/3 244/6/3
f 246/6/3 240/6/3 245/6/3
f 247/6/3 245/6/3 243/6/3
f 248/6/3 245/6/3 247/6/3
f 249/2/3 246/2/3 245/2/3
f 249/6/3 245/6/3 248/6/3
f 250/6/3 240/6/3 246/6/3
f 250/2/3 246/2/3 249/2/3
f 251/6/3 249/6/3 248/6/3
f 251/6/3 250/6/3 249/6/3
f 252/6/3 240/6/3 250/6/3
f 252/6/3 250/6/3 251/6/3
f 254/6/3 251/6/3 248/6/3
f 255/2/3 252/2/3 251/2/3
f 255/6/3 254/6/3 253/6/3
f 255/6/3 251/6/3 254/6/3
f 256/6/3 240/6/3 252/6/3
f 256/2/3 252/2/3 255/2/3
f 257/6/3 255/6/3 253/6/3
f 257/6/3 256/6/3 255/6/3
f 258/6/3 256/6/3 257/6/3
f 259/6/3 256/6/3 258/6/3
f 260/6/3 256/6/3 259/6/3
f 261/6/3 256/6/3 260/6/3
f 262/6/3 240/6/3 256/6/3
f 262/6/3 256/6/3 261/6/3
f 265/1/3 264/1/3 263/1/3
f 266/1/3 264/1/3 265/1/3
f 269/3/3 236/3/3 235/3/3
f 270/3/3 236/3/3 269/3/3
f 271/1/3 267/1/3 266/1/3
f 272/1/3 267/1/3 271/1/3
f 273/1/3 269/1/3 268/1/3
f 274/1/3 269/1/3 273/1/3
f 275/1/3 273/1/3 272/1/3
f 276/1/3 273/1/3 275/1/3
f 281/1/3 278/1/3 277/1/3
f 282/1/3 278/1/3 281/1/3
f 283/1/3 280/1/3 279/1/3
f 284/1/3 280/1/3 283/1/3
f 286/1/3 285/1/3 284/1/3
f 287/1/3 285/1/3 286/1/3
f 293/1/3 289/1/3 288/1/3
f 294/1/3 289/1/3 293/1/3
f 295/1/3 291/1/3 290/1/3
f 296/1/3 291/1/3 295/1/3
f 297/1/3 293/1/3 292/1/3
f 298/1/3 293/1/3 297/1/3
f 299/1/4 300/1/4 301/1/4
f 299/1/4 301/1/4 302/1/4
f 302/1/4 301/1/4 303/1/4
f 304/1/4 305/1/4 306/1/4
f 304/1/4 306/1/4 307/1/4
f 307/1/4 306/1/4 308/1/4
f 309/1/4 310/1/4 311/1/4
f 311/1/4 310/1/4 312/1/4
f 313/1/4 314/1/4 315/1/4
f 315/1/4 314/1/4 316/1/4
f 316/1/4 317/1/4 318/1/4
f 318/1/4 317/1/4 319/1/4
f 320/1/4 321/1/4 323/1/4
f 323/1/4 321/1/4 324/1/4
f 322/1/4 323/1/4 325/1/4
f 325/1/4 323/1/4 326/1/4
f 327/1/4 328/1/4 329/1/4
f 329/1/4 328/1/4 330/1/4
f 330/1/4 331/1/4 332/1/4
f 332/1/4 331/1/4 333/1/4
f 333/1/4 334/1/4 336/1/4
f 336/1/4 334/1/4 337/1/4
f 335/1/4 336/1/4 339/1/4
f 339/1/4 336/1/4 340/1/4
f 338/1/4 339/1/4 341/1/4
f 341/1/4 339/1/4 342/1/4
f 343/1/4 344/1/4 345/1/4
f 343/1/4 345/1/4 347/1/4
f 345/1/4 346/1/4 347/1/4
f 347/1/4 346/1/4 348/1/4
f 347/3/4 348/3/4 349/3/4
f 348/1/4 346/1/4 350/1/4
f 349/3/4 348/3/4 350/3/4
f 349/1/4 350/1/4 351/1/4
f 350/1/4 346/1/4 351/1/4
f 351/1/4 346/1/4 352/1/4
f 349/1/4 351/1/4 353/1/4
f 353/1/4 351/1/4 354/1/4
f 360/1/5 356/1/5 355/1/5
f 361/1/5 356/1/5 360/1/5
f 362/1/5 358/1/5 357/1/5
f 363/1/5 358/1/5 362/1/5
f 366/1/5 361/1/5 360/1/5
f 366/1/5 364/1/5 363/1/5
f 366/1/5 363/1/5 362/1/5
f 366/1/5 362/1/5 361/1/5
f 366/1/5 360/1/5 359/1/5
f 367/1/5 364/1/5 366/1/5
f 369/1/5 366/1/5 365/1/5
f 369/1/5 368/1/5 367/1/5
f 369/1/5 367/1/5 366/1/5
f 370/1/5 368/1/5 369/1/5
f 371/1/5 368/1/5 370/1/5
f 372/1/5 368/1/5 371/1/5
f 373/1/5 371/1/5 370/1/5
f 374/1/5 371/1/5 373/1/5
f 380/1/5 376/1/5 375/1/5
f 381/1/5 376/1/5 380/1/5
f 382/1/5 378/1/5 377/1/5
f 383/1/5 378/1/5 382/1/5
f 386/1/5 380/1/5 379/1/5
f 387/1/5 380/1/5 386/1/5
f 392/1/5 384/1/5 383/1/5
f 393/1/5 384/1/5 392/1/5
f 395/3/5 389/3/5 388/3/5
f 396/3/5 391/3/5 390/3/5
f 397/1/5 386/1/5 385/1/5
f 397/1/5 387/1/5 386/1/5
f 397/1/5 388/1/5 387/1/5
f 398/1/5 388/1/5 397/1/5
f 399/1/5 394/1/5 393/1/5
f 399/1/5 392/1/5 391/1/5
f 399/1/5 393/1/5 392/1/5
f 400/1/5 394/1/5 399/1/5
f 401/1/5 388/1/5 398/1/5
f 402/3/5 395/3/5 388/3/5
f 402/1/5 388/1/5 401/1/5
f 402/3/5 396/3/5 395/3/5
f 403/3/5 391/3/5 396/3/5
f 403/3/5 396/3/5 402/3/5
f 403/1/5 399/1/5 391/1/5
f 404/1/5 399/1/5 403/1/5
f 410/1/5 406/1/5 405/1/5
f 411/1/5 406/1/5 410/1/5
f 412/1/5 408/1/5 407/1/5
f 413/1/5 408/1/5 412/1/5
f 415/1/5 410/1/5 409/1/5
f 416/1/5 410/1/5 415/1/5
f 417/1/5 414/1/5 413/1/5
f 418/1/5 414/1/5 417/1/5
f 421/1/5 420/1/5 419/1/5
f 422/1/5 420/1/5 421/1/5
f 423/1/5 420/1/5 422/1/5
f 424/1/5 420/1/5 423/1/5
f 425/1/5 420/1/5 424/1/5
f 426/1/5 420/1/5 425/1/5
f 427/1/5 420/1/5 426/1/5
f 430/3/5 429/3/5 428/3/5
f 431/3/5 429/3/5 430/3/5
f 432/3/6 433/3/6 436/3/6
f 436/3/6 433/3/6 437/3/6
f 434/3/6 435/3/6 438/3/6
f 438/3/6 435/3/6 439/3/6
f 442/3/6 443/3/6 446/3/6
f 446/3/6 443/3/6 447/3/6
f 440/1/6 441/1/6 448/1/6
f 448/1/6 441/1/6 449/1/6
f 444/3/6 445/3/6 450/3/6
f 450/3/6 445/3/6 451/3/6
f 452/3/6 453/3/6 456/3/6
f 456/3/6 453/3/6 457/3/6
f 454/3/6 455/3/6 458/3/6
f 458/3/6 455/3/6 459/3/6
f 460/1/6 461/1/6 465/1/6
f 465/1/6 461/1/6 466/1/6
f 462/1/6 463/1/6 467/1/6
f 467/1/6 463/1/6 468/1/6
f 464/1/6 465/1/6 470/1/6
f 470/1/6 465/1/6 471/1/6
f 468/1/6 469/1/6 472/1/6
f 472/1/6 469/1/6 473/1/6
f 474/1/6 475/1/6 478/1/6
f 478/1/6 475/1/6 479/1/6
f 476/1/6 477/1/6 482/1/6
f 482/1/6 477/1/6 483/1/6
f 479/1/6 480/1/6 484/1/6
f 484/1/6 480/1/6 485/1/6
f 481/1/6 482/1/6 486/1/6
f 486/1/6 482/1/6 487/1/6
f 488/3/6 489/3/6 491/3/6
f 491/3/6 489/3/6 492/3/6
f 490/1/6 491/1/6 495/1/6
f 495/1/6 491/1/6 496/1/6
f 492/1/6 493/1/6 497/1/6
f 497/1/6 493/1/6 498/1/6
f 494/1/6 495/1/6 500/1/6
f 500/1/6 495/1/6 501/1/6
f 498/1/6 499/1/6 504/1/6
f 504/1/6 499/1/6 505/1/6
f 501/1/6 502/1/6 506/1/6
f 506/1/6 502/1/6 507/1/6
f 503/1/6 504/1/6 508/1/6
f 508/1/6 504/1/6 509/1/6
f 507/1/6 508/1/6 510/1/6
f 510/1/6 508/1/6 511/1/6
f 512/3/6 513/3/6 515/3/6
f 515/3/6 513/3/6 516/3/6
f 514/1/6 515/1/6 518/1/6
f 515/3/6 516/3/6 518/3/6
f 518/3/6 516/3/6 519/3/6
f 519/3/6 516/3/6 520/3/6
f 516/1/6 517/1/6 521/1/6
f 520/3/6 516/3/6 521/3/6
f 514/1/6 518/1/6 522/1/6
f 518/1/6 519/1/6 522/1/6
f 522/1/6 519/1/6 523/1/6
f 519/3/6 520/3/6 524/3/6
f 523/1/6 519/1/6 524/1/6
f 520/1/6 521/1/6 525/1/6
f 524/3/6 520/3/6 525/3/6
f 521/1/6 517/1/6 526/1/6
f 525/1/6 521/1/6 526/1/6
f 526/1/6 517/1/6 527/1/6
f 524/1/6 525/1/6 528/1/6
f 525/1/6 526/1/6 528/1/6
f 523/1/6 524/1/6 528/1/6
f 528/1/6 526/1/6 529/1/6
